<svg xmlns="http://www.w3.org/2000/svg" width="324" height="116" viewBox="0 0 324 116" role="img" aria-label="ai·radar"><title>ai·radar</title><path fill="#F1F2F5" d="M52.1 46.72Q55.36 46.72 57.47 47.78Q59.58 48.83 60.7 50.05Q61.82 51.26 62.08 51.71H62.59V47.36H72.32V81.28H62.59V76.93H62.08Q61.82 77.38 60.7 78.59Q59.58 79.81 57.47 80.86Q55.36 81.92 52.1 81.92Q48.32 81.92 45.54 80.42Q42.75 78.91 40.9 76.38Q39.04 73.86 38.11 70.72Q37.18 67.58 37.18 64.32Q37.18 61.06 38.11 57.92Q39.04 54.78 40.9 52.26Q42.75 49.73 45.54 48.22Q48.32 46.72 52.1 46.72ZM54.91 54.59Q52.29 54.59 50.53 56.03Q48.77 57.47 47.9 59.71Q47.04 61.95 47.04 64.32Q47.04 66.69 47.9 68.93Q48.77 71.17 50.53 72.61Q52.29 74.05 54.91 74.05Q57.54 74.05 59.3 72.61Q61.06 71.17 61.92 68.93Q62.78 66.69 62.78 64.32Q62.78 61.95 61.92 59.71Q61.06 57.47 59.3 56.03Q57.54 54.59 54.91 54.59Z M84.1 42.75Q81.54 42.75 79.94 41.12Q78.34 39.49 78.34 37.25Q78.34 34.88 79.94 33.25Q81.54 31.62 84.1 31.62Q86.53 31.62 88.19 33.25Q89.86 34.88 89.86 37.25Q89.86 39.49 88.19 41.12Q86.53 42.75 84.1 42.75ZM79.23 81.28V47.36H88.96V81.28Z"/><path fill="#F1F2F5" d="M119.36 81.28V47.36H129.02V52.29H129.34Q129.92 50.94 130.94 49.66Q131.97 48.38 133.76 47.55Q135.55 46.72 138.37 46.72Q139.78 46.72 140.61 46.88Q141.44 47.04 141.44 47.04V56.64Q141.44 56.64 140.51 56.45Q139.58 56.26 138.11 56.26Q133.57 56.26 131.33 58.72Q129.09 61.18 129.09 66.75V81.28Z M158.27 46.72Q161.54 46.72 163.65 47.78Q165.76 48.83 166.88 50.05Q168 51.26 168.26 51.71H168.77V47.36H178.5V81.28H168.77V76.93H168.26Q168 77.38 166.88 78.59Q165.76 79.81 163.65 80.86Q161.54 81.92 158.27 81.92Q154.5 81.92 151.71 80.42Q148.93 78.91 147.07 76.38Q145.22 73.86 144.29 70.72Q143.36 67.58 143.36 64.32Q143.36 61.06 144.29 57.92Q145.22 54.78 147.07 52.26Q148.93 49.73 151.71 48.22Q154.5 46.72 158.27 46.72ZM161.09 54.59Q158.46 54.59 156.7 56.03Q154.94 57.47 154.08 59.71Q153.22 61.95 153.22 64.32Q153.22 66.69 154.08 68.93Q154.94 71.17 156.7 72.61Q158.46 74.05 161.09 74.05Q163.71 74.05 165.47 72.61Q167.23 71.17 168.1 68.93Q168.96 66.69 168.96 64.32Q168.96 61.95 168.1 59.71Q167.23 57.47 165.47 56.03Q163.71 54.59 161.09 54.59Z M199.17 81.92Q195.39 81.92 192.61 80.42Q189.82 78.91 187.97 76.38Q186.11 73.86 185.18 70.72Q184.26 67.58 184.26 64.32Q184.26 61.06 185.18 57.92Q186.11 54.78 187.97 52.26Q189.82 49.73 192.61 48.22Q195.39 46.72 199.17 46.72Q202.43 46.72 204.54 47.78Q206.66 48.83 207.78 50.05Q208.9 51.26 209.15 51.71H209.66V32.64H219.39V81.28H209.66V76.93H209.15Q208.9 77.38 207.78 78.59Q206.66 79.81 204.54 80.86Q202.43 81.92 199.17 81.92ZM201.98 74.05Q204.61 74.05 206.37 72.61Q208.13 71.17 208.99 68.93Q209.86 66.69 209.86 64.32Q209.86 61.95 208.99 59.71Q208.13 57.47 206.37 56.03Q204.61 54.59 201.98 54.59Q199.36 54.59 197.6 56.03Q195.84 57.47 194.98 59.71Q194.11 61.95 194.11 64.32Q194.11 66.69 194.98 68.93Q195.84 71.17 197.6 72.61Q199.36 74.05 201.98 74.05Z M239.94 46.72Q243.2 46.72 245.31 47.78Q247.42 48.83 248.54 50.05Q249.66 51.26 249.92 51.71H250.43V47.36H260.16V81.28H250.43V76.93H249.92Q249.66 77.38 248.54 78.59Q247.42 79.81 245.31 80.86Q243.2 81.92 239.94 81.92Q236.16 81.92 233.38 80.42Q230.59 78.91 228.74 76.38Q226.88 73.86 225.95 70.72Q225.02 67.58 225.02 64.32Q225.02 61.06 225.95 57.92Q226.88 54.78 228.74 52.26Q230.59 49.73 233.38 48.22Q236.16 46.72 239.94 46.72ZM242.75 54.59Q240.13 54.59 238.37 56.03Q236.61 57.47 235.74 59.71Q234.88 61.95 234.88 64.32Q234.88 66.69 235.74 68.93Q236.61 71.17 238.37 72.61Q240.13 74.05 242.75 74.05Q245.38 74.05 247.14 72.61Q248.9 71.17 249.76 68.93Q250.62 66.69 250.62 64.32Q250.62 61.95 249.76 59.71Q248.9 57.47 247.14 56.03Q245.38 54.59 242.75 54.59Z M265.98 81.28V47.36H275.65V52.29H275.97Q276.54 50.94 277.57 49.66Q278.59 48.38 280.38 47.55Q282.18 46.72 284.99 46.72Q286.4 46.72 287.23 46.88Q288.06 47.04 288.06 47.04V56.64Q288.06 56.64 287.14 56.45Q286.21 56.26 284.74 56.26Q280.19 56.26 277.95 58.72Q275.71 61.18 275.71 66.75V81.28Z"/><circle cx="104.61" cy="64.32" r="5.60" fill="#64AFFF"/></svg>
